<?xml version="1.0" encoding="utf-8"?>
<!-- Generator: Adobe Illustrator 24.1.1, SVG Export Plug-In . SVG Version: 6.00 Build 0)  -->
<svg version="1.1" id="Layer_1" xmlns="http://www.w3.org/2000/svg" xmlns:xlink="http://www.w3.org/1999/xlink" x="0px" y="0px"
	 viewBox="0 0 512 512" style="enable-background:new 0 0 512 512;" xml:space="preserve">
<style type="text/css">
	.st0{fill:#333333;}
</style>
<g id="XMLID_5_">
	<path id="XMLID_10_" class="st0" d="M256.4,0C158.3,0,78.9,79.4,78.9,177.5S158.3,355,256.4,355s177.5-79.4,177.5-177.5
		S354.6,0,256.4,0z M147.2,238.1h219.3c0,39.3-62.3,78.5-109.2,78.5C208.6,316.6,147.2,274.8,147.2,238.1z M145.5,362.7
		C76.4,391.7,26.9,446.3,15.8,512h480.4c-11.1-64.9-60.6-120.3-129.7-149.3c-32.4,19.6-70,30.7-110.9,30.7S177.9,382.3,145.5,362.7z
		"/>
</g>
</svg>
